<svg width="332" height="439" viewBox="0 0 332 439" fill="none" xmlns="http://www.w3.org/2000/svg">
<path d="M278.803 10.7048H0V422.874H278.803V10.7048Z" fill="#535461"/>
<path d="M202.823 433.539L0 422.874V10.7045L202.823 0.0395203V433.539Z" fill="#3C344A"/>
<path d="M185.869 239.06C187.256 239.06 188.381 237.937 188.381 236.551C188.381 235.165 187.256 234.042 185.869 234.042C184.482 234.042 183.357 235.165 183.357 236.551C183.357 237.937 184.482 239.06 185.869 239.06Z" fill="#535461"/>
<path d="M185.869 236.925L187.61 239.939L189.351 242.951H185.869H182.387L184.127 239.939L185.869 236.925Z" fill="#535461"/>
<path d="M211.614 433.539L199.192 433.499L199.683 0.0395203H211.614V433.539Z" fill="#3C344A"/>
<g opacity="0.1">
<path opacity="0.1" d="M211.75 433.5H199.192L199.82 0H211.75V433.5Z" fill="white"/>
</g>
<path opacity="0.1" d="M185.869 226.513C190.377 226.513 194.032 222.862 194.032 218.358C194.032 213.854 190.377 210.202 185.869 210.202C181.36 210.202 177.706 213.854 177.706 218.358C177.706 222.862 181.36 226.513 185.869 226.513Z" fill="black"/>
<path d="M185.869 225.259C190.377 225.259 194.032 221.607 194.032 217.103C194.032 212.599 190.377 208.948 185.869 208.948C181.36 208.948 177.706 212.599 177.706 217.103C177.706 221.607 181.36 225.259 185.869 225.259Z" fill="#535461"/>
<path opacity="0.1" d="M33.1671 10.1054V424.815" stroke="black" stroke-width="2" stroke-miterlimit="10"/>
<path opacity="0.1" d="M68.9595 7.59596V426.069" stroke="black" stroke-width="2" stroke-miterlimit="10"/>
<path opacity="0.1" d="M104.752 5.7139V428.481" stroke="black" stroke-width="2" stroke-miterlimit="10"/>
<path opacity="0.1" d="M140.544 3.83185V431.088" stroke="black" stroke-width="2" stroke-miterlimit="10"/>
<path opacity="0.1" d="M176.336 1.9498V431.617" stroke="black" stroke-width="2" stroke-miterlimit="10"/>
<path d="M290.87 83.0132C304.569 83.0132 315.674 72.6209 315.674 59.8012C315.674 46.9816 304.569 36.5892 290.87 36.5892C277.172 36.5892 266.067 46.9816 266.067 59.8012C266.067 72.6209 277.172 83.0132 290.87 83.0132Z" fill="#2F2E41"/>
<path d="M218.658 204.406L212.378 213.189C212.378 213.189 182.238 219.462 193.54 228.872C204.843 238.283 221.169 220.089 221.169 220.089L229.961 208.797L218.658 204.406Z" fill="#FFB8B8"/>
<path d="M251.31 104.657C251.31 104.657 243.147 104.657 241.263 115.949C239.38 127.241 237.496 164.883 237.496 164.883C237.496 164.883 211.123 199.387 215.518 203.778C219.914 208.17 224.937 216.325 228.077 215.071C231.216 213.816 258.218 176.802 258.218 176.802L251.31 104.657Z" fill="#3C344A"/>
<path opacity="0.1" d="M251.31 104.657C251.31 104.657 243.147 104.657 241.263 115.949C239.38 127.241 237.496 164.883 237.496 164.883C237.496 164.883 211.123 199.387 215.518 203.778C219.914 208.17 224.937 216.325 228.077 215.071C231.216 213.816 258.218 176.802 258.218 176.802L251.31 104.657Z" fill="black"/>
<path d="M276.428 72.6619C276.428 72.6619 275.8 97.1286 268.265 98.3833C260.729 99.638 263.241 107.794 263.241 107.794C263.241 107.794 287.731 122.223 304.057 107.794L307.197 100.265C307.197 100.265 295.894 92.1098 300.917 80.8175L276.428 72.6619Z" fill="#FFB8B8"/>
<path d="M234.356 223.226C234.356 223.226 197.308 292.235 211.123 313.565C224.937 334.895 245.659 378.809 248.799 378.809C251.938 378.809 269.521 370.026 268.265 364.38C267.009 358.734 248.171 316.701 243.147 312.937C238.124 309.173 240.636 299.136 241.263 298.508C241.891 297.881 262.613 264.631 262.613 264.631C262.613 264.631 261.985 317.329 264.497 325.484C267.009 333.64 263.869 391.984 267.009 394.493C270.148 397.002 284.591 401.394 287.103 397.63C289.614 393.866 297.15 336.777 292.126 323.602L301.545 233.264L234.356 223.226Z" fill="#2F2E41"/>
<path d="M268.265 390.729L252.566 419.587C252.566 419.587 229.961 435.898 245.659 438.408C261.357 440.917 270.776 434.643 270.776 434.643L284.591 424.606V395.748L268.265 390.729Z" fill="#2F2E41"/>
<path d="M246.915 374.418L255.078 393.866C255.078 393.866 258.218 402.021 255.078 403.903C251.938 405.785 243.147 417.078 248.799 418.332C249.935 418.555 251.091 418.67 252.249 418.675C256.955 418.754 261.629 417.881 265.988 416.109C270.348 414.336 274.303 411.701 277.616 408.362L282.707 403.276C282.707 403.276 265.269 363.158 265.511 363.455C265.753 363.753 246.915 374.418 246.915 374.418Z" fill="#2F2E41"/>
<path d="M292.126 87.7183C303.917 87.7183 313.476 78.1686 313.476 66.3884C313.476 54.6082 303.917 45.0585 292.126 45.0585C280.335 45.0585 270.776 54.6082 270.776 66.3884C270.776 78.1686 280.335 87.7183 292.126 87.7183Z" fill="#FFB8B8"/>
<path d="M304.371 96.1876L297.778 102.775C297.778 102.775 277.684 110.303 268.265 102.775C268.265 102.775 271.718 95.5602 271.718 96.1876C271.718 96.8149 244.403 100.893 241.891 112.185C239.38 123.477 243.775 142.925 243.775 142.925C243.775 142.925 226.193 225.736 233.1 227.618C240.008 229.5 304.685 245.183 304.057 233.264C303.429 221.344 309.08 172.411 309.08 172.411L331.058 130.378C331.058 130.378 327.918 116.576 320.383 112.185C312.848 107.794 304.371 96.1876 304.371 96.1876Z" fill="#3C344A"/>
<path d="M276.428 218.835L268.265 223.854C268.265 223.854 236.868 245.183 253.194 248.948C269.52 252.712 278.939 233.891 278.939 233.891L285.219 226.363L276.428 218.835Z" fill="#FFB8B8"/>
<path opacity="0.1" d="M322.895 126.614L328.546 132.26C328.546 132.26 332.314 184.958 324.779 195.623C317.243 206.288 282.707 235.146 280.823 233.264C278.939 231.382 267.009 221.971 269.52 220.717C272.032 219.462 305.428 184.601 305.428 184.601L302.801 136.024L322.895 126.614Z" fill="black"/>
<path d="M325.407 124.732L331.058 130.378C331.058 130.378 334.826 183.076 327.29 193.741C319.755 204.406 285.219 233.264 283.335 231.382C281.451 229.5 269.52 220.089 272.032 218.835C274.544 217.58 307.939 182.718 307.939 182.718L305.313 134.142L325.407 124.732Z" fill="#3C344A"/>
<path d="M283.296 36.0906C283.296 36.0906 276.039 33.454 266.143 39.0567L271.421 40.375C271.421 40.375 263.504 41.0342 262.514 51.5805H266.143C266.143 51.5805 263.833 60.8086 266.143 63.4452L267.627 60.6438L271.915 69.2127L272.905 64.9282L274.884 65.5874L276.204 58.6663C276.204 58.6663 279.503 63.61 282.142 63.9395V59.6551C282.142 59.6551 289.399 67.8944 291.708 67.5648L288.409 62.9508L293.028 63.9395L291.049 60.6438L302.924 63.9395L300.285 60.6438L308.532 63.2804L312.491 64.9282C312.491 64.9282 318.099 52.0749 310.182 43.1764C302.264 34.2779 290.719 32.3005 283.296 36.0906Z" fill="#2F2E41"/>
</svg>
