<svg width="455" height="274" viewBox="0 0 455 274" fill="none" xmlns="http://www.w3.org/2000/svg">
<path d="M31.4543 257.103L58.2891 218.501L31.4407 261.302L31.425 265.694C29.5114 265.678 27.617 265.616 25.742 265.507C25.7335 264.51 28.0143 209.64 27.9174 208.647C28.0498 208.61 28.124 203.458 28.1765 203.232L0.142029 161.049L28.2066 199.24L28.2903 200.369L29.9552 157.739L5.85659 114.083L30.1459 150.248C30.1549 149.668 31.2955 62.1381 31.3067 61.598C31.3136 61.8849 31.8371 131.255 31.841 131.547L54.8885 103.625L31.8188 137.547L31.701 175.701L53.0889 138.805C26.3971 192.611 32.3041 173.783 31.6224 202.525L62.6895 151.151L31.5958 209.927L31.4543 257.103Z" fill="#D0CDE1"/>
<path d="M441.983 262.344L453.166 246.257L441.978 264.094L441.971 265.924C441.174 265.917 440.384 265.891 439.603 265.846C439.599 265.431 440.55 242.565 440.51 242.151C440.565 242.136 440.596 239.989 440.618 239.895L428.935 222.316L440.63 238.231L440.665 238.701L441.359 220.936L431.316 202.744L441.438 217.815C441.442 217.573 441.917 181.097 441.922 180.872C441.925 180.992 442.143 209.9 442.145 210.022L451.749 198.386L442.135 212.522L442.086 228.422L450.999 213.046C439.876 235.469 442.338 227.622 442.054 239.6L455 218.191L442.042 242.684L441.983 262.344Z" fill="#D0CDE1"/>
<path d="M226.756 274C351.99 274 453.513 270.018 453.513 265.105C453.513 260.193 351.99 256.211 226.756 256.211C101.522 256.211 0 260.193 0 265.105C0 270.018 101.522 274 226.756 274Z" fill="#D0CDE1"/>
<path d="M336.75 105.056H77.8417V259.6H336.75V105.056Z" fill="#3F3D56"/>
<path d="M141.917 105.056C141.653 121.318 135.015 136.825 123.435 148.232C111.855 159.64 96.2615 166.034 80.0162 166.035C79.2886 166.035 78.5652 166.023 77.8417 165.997V105.056H141.917Z" fill="#3C344A"/>
<path d="M219.961 259.599H195.336C196.263 257.077 197.94 254.899 200.142 253.361C202.344 251.823 204.964 250.998 207.649 250.998C210.333 250.998 212.953 251.823 215.155 253.361C217.357 254.899 219.034 257.077 219.961 259.599Z" fill="#3C344A"/>
<path d="M336.75 179.661V231.717C330.075 231.39 323.781 228.505 319.172 223.66C314.564 218.815 311.993 212.38 311.993 205.689C311.993 198.998 314.564 192.563 319.172 187.718C323.781 182.873 330.075 179.988 336.75 179.661Z" fill="#3C344A"/>
<path d="M289.186 161.213H125.854C121.641 161.213 118.226 164.632 118.226 168.85V168.85C118.226 173.068 121.641 176.487 125.854 176.487H289.186C293.399 176.487 296.814 173.068 296.814 168.85C296.814 164.632 293.399 161.213 289.186 161.213Z" fill="white"/>
<path d="M289.186 191.313H125.854C121.641 191.313 118.226 194.732 118.226 198.95V198.95C118.226 203.168 121.641 206.587 125.854 206.587H289.186C293.399 206.587 296.814 203.168 296.814 198.95C296.814 194.732 293.399 191.313 289.186 191.313Z" fill="white"/>
<path d="M289.186 221.413H241.829C237.616 221.413 234.201 224.832 234.201 229.05C234.201 233.268 237.616 236.687 241.829 236.687H289.186C293.399 236.687 296.814 233.268 296.814 229.05C296.814 224.832 293.399 221.413 289.186 221.413Z" fill="white"/>
<path d="M377.808 47.4893C377.808 47.4893 384.928 50.2613 385.323 59.3692C385.719 68.4772 383.345 93.8211 383.345 93.8211C383.345 93.8211 392.047 106.493 385.323 110.057C378.599 113.621 377.808 95.8011 377.808 95.8011L369.898 58.1812C369.898 58.1812 374.644 47.0933 377.808 47.4893Z" fill="#A0616A"/>
<path d="M305.032 76.7932C305.032 76.7932 288.024 87.8811 287.233 79.1691C286.442 70.4572 292.375 36.4013 292.375 36.4013C292.375 36.4013 293.166 21.7494 301.472 25.3134C309.778 28.8774 299.099 41.1533 299.099 41.1533L300.285 68.8732L308.196 68.4772L305.032 76.7932Z" fill="#A0616A"/>
<path d="M332.323 87.0891C332.323 87.0891 280.113 67.6852 282.882 90.2571C285.651 112.829 299.099 141.341 299.099 141.341L303.845 148.865H313.733L307.405 108.077C307.405 108.077 329.95 120.749 336.673 118.769C336.673 118.769 345.375 176.981 348.539 181.337C351.703 185.693 357.241 238.36 357.241 238.36L362.383 244.696H372.271V155.597C372.271 155.597 389.278 100.157 376.226 97.3851C363.174 94.6131 332.323 87.0891 332.323 87.0891Z" fill="#2F2E41"/>
<path d="M302.658 143.717C302.658 143.717 300.285 139.361 296.33 143.717C292.375 148.073 282.882 153.221 282.882 153.221C282.882 153.221 262.315 157.973 278.927 161.933C295.539 165.893 297.517 161.933 297.517 161.933C297.517 161.933 300.285 162.725 302.658 163.517C305.031 164.309 320.457 161.537 320.457 159.161C320.457 156.785 315.22 142.585 313.092 144.735C310.964 146.885 302.658 143.717 302.658 143.717Z" fill="#2F2E41"/>
<path d="M363.14 240.777C363.14 240.777 357.309 235.968 355.936 237.342C354.564 238.716 347.36 247.989 347.36 247.989C347.36 247.989 328.15 262.758 345.645 265.162C363.14 267.566 362.111 261.041 362.111 261.041H367.6C368.286 261.041 377.549 256.919 377.205 255.202C376.862 253.485 372.746 239.481 371.374 240.472C370.001 241.464 363.14 240.777 363.14 240.777Z" fill="#2F2E41"/>
<path d="M310.173 32.4414C317.6 32.4414 323.621 26.4134 323.621 18.9774C323.621 11.5415 317.6 5.51349 310.173 5.51349C302.746 5.51349 296.725 11.5415 296.725 18.9774C296.725 26.4134 302.746 32.4414 310.173 32.4414Z" fill="#A0616A"/>
<path d="M319.666 17.3934C319.666 17.3934 329.95 26.1054 337.069 26.1054C344.188 26.1054 326.785 42.3413 326.785 42.3413L311.36 28.4814L319.666 17.3934Z" fill="#A0616A"/>
<path d="M323.621 42.3413L323.313 39.2215C323.313 39.2215 331.136 25.3134 333.509 24.1254C335.882 22.9374 337.465 22.9374 337.465 22.9374C337.465 22.9374 345.375 14.6215 354.077 18.9774C362.778 23.3334 383.345 51.0533 383.345 51.0533C383.345 51.0533 368.711 52.2413 370.689 63.7252C370.689 63.7252 385.323 101.345 381.368 101.741C377.413 102.137 365.547 99.3651 353.286 104.909C341.024 110.453 335.487 106.889 335.487 106.889L329.159 86.2971C329.159 86.2971 317.293 79.5652 317.688 73.6252L300.483 81.3472L302.065 66.6952L312.546 54.6173C312.546 54.6173 310.569 53.0333 323.621 42.3413Z" fill="#575A89"/>
<path d="M297.803 20.433C297.269 21.0277 296.599 21.4845 295.85 21.7646C295.084 21.9808 294.119 21.7156 293.814 20.9798L294.383 20.2388L292.678 19.1783L293.421 18.3057L292.048 16.8129L293.132 15.9521L291.068 14.4747C293.742 10.1058 296.634 5.68228 300.856 2.78615C305.078 -0.10999 310.978 -1.13909 315.303 1.60026C317.548 3.0225 319.136 5.27982 320.408 7.61553C322.966 12.3129 325.221 16.8918 325.554 22.2316C323.947 20.6649 321.601 19.7821 319.994 18.2155C319.283 17.4596 318.477 16.7989 317.596 16.2499C315.915 15.301 313.904 15.2171 312.023 14.789C310.441 14.4291 309.414 13.7152 308.217 12.6945C306.794 11.4803 306.736 11.9498 305.298 13.3168C302.801 15.6906 300.303 18.0626 297.803 20.433Z" fill="#2F2E41"/>
</svg>
